<?xml version="1.0" encoding="UTF-8" standalone="no"?>
<!-- Uploaded to: SVG Repo, www.svgrepo.com, Generator: SVG Repo Mixer Tools -->

<svg
   fill="#000000"
   width="150"
   height="134.61539"
   viewBox="0 0 4.5 4.0384616"
   id="calendar-alert"
   class="icon line"
   version="1.1"
   sodipodi:docname="ReminderSplash.svg"
   inkscape:version="1.2.2 (b0a8486, 2022-12-01)"
   xmlns:inkscape="http://www.inkscape.org/namespaces/inkscape"
   xmlns:sodipodi="http://sodipodi.sourceforge.net/DTD/sodipodi-0.dtd"
   xmlns="http://www.w3.org/2000/svg"
   xmlns:svg="http://www.w3.org/2000/svg">
  <defs
     id="defs8" />
  <sodipodi:namedview
     id="namedview6"
     pagecolor="#ffffff"
     bordercolor="#000000"
     borderopacity="0.25"
     inkscape:showpageshadow="2"
     inkscape:pageopacity="0.0"
     inkscape:pagecheckerboard="0"
     inkscape:deskcolor="#d1d1d1"
     showgrid="false"
     inkscape:zoom="1.0677084"
     inkscape:cx="102.0878"
     inkscape:cy="127.8439"
     inkscape:window-width="1694"
     inkscape:window-height="821"
     inkscape:window-x="1448"
     inkscape:window-y="73"
     inkscape:window-maximized="0"
     inkscape:current-layer="calendar-alert" />
  <path
     id="primary"
     d="M 3.0559624,3.2793626 H 3.5175012 A 0.15384621,0.15384621 0 0 0 3.6713477,3.1255157 V 0.97166918 A 0.15384621,0.15384621 0 0 0 3.5175012,0.81782299 H 1.0559619 A 0.15384621,0.15384621 0 0 0 0.90211567,0.97166918 V 3.1255157 A 0.15384621,0.15384621 0 0 0 1.0559619,3.2793626 h 0.4615385"
     style="fill:none;stroke:#000000;stroke-width:0.230768;stroke-linecap:round;stroke-linejoin:round" />
  <path
     id="primary-2"
     data-name="primary"
     d="M 3.6713477,0.97166918 V 1.4332076 H 0.90211567 V 0.97166918 c 0,-0.0849669 0.0688793,-0.15384619 0.15384623,-0.15384619 h 2.4615393 c 0.084967,0 0.1538465,0.0688793 0.1538465,0.15384619 z M 2.2867314,2.0485923 v 0.66983"
     style="fill:none;stroke:#000000;stroke-width:0.230768;stroke-linecap:round;stroke-linejoin:round"
     sodipodi:nodetypes="sccsssscc" />
  <path
     id="primary-2-7"
     data-name="primary"
     d="M 2.2871487,2.0483672 V 2.7181969"
     style="fill:#ff0000;stroke:#ff0000;stroke-width:0.230768;stroke-linecap:round;stroke-linejoin:round;stroke-opacity:1"
     sodipodi:nodetypes="cc" />
  <line
     id="primary-upstroke"
     x1="2.2790399"
     y1="3.2024374"
     x2="2.2944221"
     y2="3.2024374"
     style="fill:none;fill-opacity:1;stroke:#ff0000;stroke-width:0.3;stroke-linecap:round;stroke-linejoin:round;stroke-opacity:1" />
</svg>
